<svg xmlns="http://www.w3.org/2000/svg" width="1240" height="328" viewBox="0 0 1240 328" role="img" aria-label="Semantics and body handoff req/s median">
<rect width="1240" height="328" fill="transparent"/>
<text x="320" y="34" font-size="26" font-weight="700" fill="#334155">Semantics and body handoff req/s median</text>
<rect x="320" y="48" width="18" height="18" rx="3" fill="#0f766e"/>
<text x="348" y="62" font-size="16" fill="#334155">iohttpparser</text>
<text x="304" y="104" text-anchor="end" font-size="14" fill="#334155">request-chunked-parse</text>
<rect x="320" y="88" width="800" height="22" rx="4" fill="#e2e8f0"/>
<rect x="320" y="88" width="326.2" height="22" rx="4" fill="#0f766e"/>
<text x="654.2" y="104" font-size="13" fill="#334155">7.65M</text>
<text x="304" y="156" text-anchor="end" font-size="14" fill="#334155">request-chunked-parse-semantics</text>
<rect x="320" y="140" width="800" height="22" rx="4" fill="#e2e8f0"/>
<rect x="320" y="140" width="323.5" height="22" rx="4" fill="#0f766e"/>
<text x="651.5" y="156" font-size="13" fill="#334155">7.59M</text>
<text x="304" y="208" text-anchor="end" font-size="14" fill="#334155">request-chunked-parse-semantics-body</text>
<rect x="320" y="192" width="800" height="22" rx="4" fill="#e2e8f0"/>
<rect x="320" y="192" width="210.2" height="22" rx="4" fill="#0f766e"/>
<text x="538.2" y="208" font-size="13" fill="#334155">4.93M</text>
<text x="304" y="260" text-anchor="end" font-size="14" fill="#334155">response-fixed-parse-semantics-body</text>
<rect x="320" y="244" width="800" height="22" rx="4" fill="#e2e8f0"/>
<rect x="320" y="244" width="727.3" height="22" rx="4" fill="#0f766e"/>
<text x="1055.3" y="260" font-size="13" fill="#334155">17.06M</text>
</svg>
