<svg xmlns="http://www.w3.org/2000/svg" width="1240" height="328" viewBox="0 0 1240 328" role="img" aria-label="Upgrade and ioguard-style flows req/s median">
<rect width="1240" height="328" fill="transparent"/>
<text x="320" y="34" font-size="26" font-weight="700" fill="#334155">Upgrade and ioguard-style flows req/s median</text>
<rect x="320" y="48" width="18" height="18" rx="3" fill="#d97706"/>
<text x="348" y="62" font-size="16" fill="#334155">iohttpparser</text>
<text x="304" y="104" text-anchor="end" font-size="14" fill="#334155">response-upgrade-parse</text>
<rect x="320" y="88" width="800" height="22" rx="4" fill="#e2e8f0"/>
<rect x="320" y="88" width="408.1" height="22" rx="4" fill="#d97706"/>
<text x="736.1" y="104" font-size="13" fill="#334155">9.65M</text>
<text x="304" y="156" text-anchor="end" font-size="14" fill="#334155">response-upgrade-parse-semantics</text>
<rect x="320" y="140" width="800" height="22" rx="4" fill="#e2e8f0"/>
<rect x="320" y="140" width="439.9" height="22" rx="4" fill="#d97706"/>
<text x="767.9" y="156" font-size="13" fill="#334155">10.40M</text>
<text x="304" y="208" text-anchor="end" font-size="14" fill="#334155">consumer-ioguard-connect</text>
<rect x="320" y="192" width="800" height="22" rx="4" fill="#e2e8f0"/>
<rect x="320" y="192" width="727.3" height="22" rx="4" fill="#d97706"/>
<text x="1055.3" y="208" font-size="13" fill="#334155">17.19M</text>
<text x="304" y="260" text-anchor="end" font-size="14" fill="#334155">consumer-ioguard-reject-te-cl</text>
<rect x="320" y="244" width="800" height="22" rx="4" fill="#e2e8f0"/>
<rect x="320" y="244" width="348.4" height="22" rx="4" fill="#d97706"/>
<text x="676.4" y="260" font-size="13" fill="#334155">8.23M</text>
</svg>
