<svg xmlns="http://www.w3.org/2000/svg" width="1240" height="328" viewBox="0 0 1240 328" role="img" aria-label="Scanner backend average ns/op">
<rect width="1240" height="328" fill="transparent"/>
<text x="320" y="34" font-size="26" font-weight="700" fill="#334155">Scanner backend average ns/op</text>
<rect x="320" y="48" width="18" height="18" rx="3" fill="#7c3aed"/>
<text x="348" y="62" font-size="16" fill="#334155">lower is better</text>
<text x="304" y="104" text-anchor="end" font-size="14" fill="#334155">dispatch</text>
<rect x="320" y="88" width="800" height="22" rx="4" fill="#e2e8f0"/>
<rect x="320" y="88" width="552.1" height="22" rx="4" fill="#7c3aed"/>
<text x="880.1" y="104" font-size="13" fill="#334155">8.21 ns</text>
<text x="304" y="156" text-anchor="end" font-size="14" fill="#334155">scalar</text>
<rect x="320" y="140" width="800" height="22" rx="4" fill="#e2e8f0"/>
<rect x="320" y="140" width="727.3" height="22" rx="4" fill="#7c3aed"/>
<text x="1055.3" y="156" font-size="13" fill="#334155">10.82 ns</text>
<text x="304" y="208" text-anchor="end" font-size="14" fill="#334155">sse42</text>
<rect x="320" y="192" width="800" height="22" rx="4" fill="#e2e8f0"/>
<rect x="320" y="192" width="657.9" height="22" rx="4" fill="#7c3aed"/>
<text x="985.9" y="208" font-size="13" fill="#334155">9.79 ns</text>
<text x="304" y="260" text-anchor="end" font-size="14" fill="#334155">avx2</text>
<rect x="320" y="244" width="800" height="22" rx="4" fill="#e2e8f0"/>
<rect x="320" y="244" width="584.0" height="22" rx="4" fill="#7c3aed"/>
<text x="912.0" y="260" font-size="13" fill="#334155">8.69 ns</text>
</svg>
